<svg id="Layer_1" data-name="Layer 1" xmlns="http://www.w3.org/2000/svg" viewBox="0 0 398 254"><defs><style>.cls-1{fill:#fff;}</style></defs><title>oji-origami</title><path class="cls-1" d="M171.88,164.6C156,186.12,103.66,208,74.19,208c-16.56,0-53-17.22-61.93-32.12C6.63,166.25,1,136.45,1,110.62,1,71.87,7.29,46.37,16.9,37.1,35.11,19.21,85.45,1,117.24,1c19.21,0,53.65,14.9,62.59,29.47,4.31,7,7,27.49,7,61.6C186.78,121.88,179.5,154.66,171.88,164.6ZM135.45,31.14c-4.31-5-20.2-7.95-44-7.95H89.09c-15.23,0-30.14,3.31-34.77,7.29C47,36.77,40.08,59,40.08,102.67c0,31.79,6,62.26,13.91,72.19,5,6.29,28.81,9.93,48.68,9.93,12.92,0,25.83-3.31,29.47-7.28,8.61-9.27,15.89-36.43,15.89-76.83C148,63.59,143.4,40.08,135.45,31.14Z" transform="translate(-1 -1)"/><path class="cls-1" d="M281.68,11.6c0,2-.66,4-1.66,4.31-12.25,4.3-16.22,7-16.89,11.59-1,7.95-1.33,37.42-1.33,73.19,0,53.65,0,75.51-3,91.07-5.3,29.81-46.69,63.25-61.59,63.25-11.92,0-21.53-7-24.84-13.91a15.47,15.47,0,0,1-1-5.63c0-6.62,3.31-14.57,5-14.57h0.33c8.94,5.63,18.88,9.93,26.82,9.93,6,0,10.6-1,12.92-3,7.29-6.29,11.92-22.85,11.92-111.94,0-73.19,0-83.12-2.65-89.08-1.33-3.31-10.27-6-27.49-10.6-1-.33-1.32-2-1.32-3.64,0-2,.66-4,1.66-4h81.8C281.35,8.62,281.68,9.94,281.68,11.6Z" transform="translate(-1 -1)"/><path class="cls-1" d="M306.94,200.69c-1,0-1.32-1.33-1.32-3,0-2,.66-4.3,1.32-4.64,16.56-5,20.2-9.93,20.86-13.91,1.33-7.95,2-28.81,2-77.16,0-58.62-1.32-68.88-2.65-75.18-1-3.64-9.27-6-27.82-10.93-1-.33-1.33-2-1.33-3.64s0.33-3.64,1.66-3.64h83.79c1,0,1.33,1.32,1.33,2.65,0,2-.66,4.64-2,5-13.25,4-17.22,7.95-17.88,12.25-1,5.63-1.33,30.8-1.33,72.52,0,46.36.66,71.2,2.32,78.82,0.66,4,9.27,7.95,32.12,13.58,0.66,0.33,1,2.32,1,4s-0.33,3.31-1,3.31H306.94Z" transform="translate(-1 -1)"/></svg>